<svg version="1" xmlns="http://www.w3.org/2000/svg" width="4000" height="4000" viewBox="0 0 3000.000000 3000.000000"><path d="M1251 192c-1.9.4-4.6 1.1-5.9 1.4-3.6.8-10.1 4.4-15.9 8.8-9.5 7.1-19.2 22.8-22.2 35.8-.7 3-1.6 6.8-2 8.5-.8 3.6-.5 20.5.5 26 3.8 20.9 18.5 38.1 36.3 42.6 2.9.7 5.7 1.9 6.3 2.5.6.7 1.2 8.5 1.4 17.6.1 9 .6 18 1 20l.7 3.7h-7.2c-9.5 0-16 2.4-22.5 8.3-8.4 7.7-15.2 23.4-18 41.8-.4 2.5-.9 5.4-1.1 6.4-1 5.7-1.8 20.8-1.7 33.5.2 17.8 0 18.5-17.1 44.1-12.8 19.1-19.9 31.9-26.6 47.6-10.8 25.2-18.2 51.9-21.5 77.4-.3 2.5-.7 6.1-1 8-2.5 18.6-2.2 48.3.6 71.5 1 8.6 1.2 10.1 3.4 21.5 1.9 9.8 2.1 10.8 3.4 15.5.6 2.2 1.1 4.4 1.2 5 .4 2.9 9.7 28.3 13.4 36.5 15.6 34.6 35.8 61.6 67.5 89.7 14.4 12.8 36.8 27.3 60.3 39.2l4.7 2.4-2.2 2.8c-19.3 23.4-33.1 43.5-45.7 66.2-24.1 43.3-42.7 92.5-58.4 154.5-3 11.7-5.6 21.4-5.8 21.6-.2.2-4.4.7-9.4 1-4.9.4-11 .8-13.5 1.1-2.5.3-6.7.7-9.5 1-2.7.3-6.6.7-8.5 1-1.9.3-5.5.7-7.9 1-2.5.3-5.4.8-6.5 1-1.2.3-4.1.7-6.6 1-2.5.2-5.6.7-7 1-1.4.3-6.5 1.2-11.5 2-4.9.8-10.1 1.7-11.5 2-1.4.3-3.8.8-5.5 1-1.6.3-23 4.6-47.5 9.5s-45.8 9.1-47.5 9.4c-6.4 1-12.1 1.8-13.6 2.1-.9.2-4 .6-6.9 1-2.9.4-6 .8-6.9 1-.9.1-4.3.6-7.6 1-3.2.4-6.6.8-7.5 1-.8.1-4.2.6-7.5.9-9.1 1.1-12.5 1.6-18 2.6-2.7.5-6.8 1.2-9 1.6-6 .9-7.8 1.2-10 1.8-1.1.2-4.1.9-6.6 1.5-14 3.2-28.5 8.9-39 15.2-9.7 5.9-11.5 8-13.9 15.5-4.1 13.3-2.2 28 5.3 41.4 3.6 6.4 3.6 6.3 10.4 13.8l5.1 5.7-.4 9c-.2 4.9-.6 14.4-.8 21-.5 11.1-.7 12.1-2.8 13.5-14.4 9.6-28.1 25.5-38.2 44.4-6.5 12.1-13.8 31-16.2 42.1-.1.5-.7 2.8-1.2 5-.6 2.2-1.4 5.5-1.7 7.4-.3 1.9-.7 3.7-.9 4-.2.3-.7 2.8-1 5.6-.4 2.7-.9 6.3-1.2 8-2.4 14.1-2.9 47.8-.8 63.4 1.1 8.6 2.1 13.7 4.9 26.1 6.1 26.5 32.7 74.1 52.3 93.7 17.4 17.3 36.1 27.5 59.1 31.9 7.3 1.4 26.8 2 34.1.9 18.3-2.6 36.2-8.9 60.4-21.2 8.3-4.2 22.4-12.7 23.6-14.2.3-.4 1.8-1.5 3.4-2.5 4.5-2.9 20-18.2 23.2-22.9 1.6-2.3 3.2-4.4 3.6-4.7.4-.3 3-4.9 5.6-10.2 6.9-13.5 10.9-29 11.1-43.3l.1-5 7.2-5c3.9-2.8 7.6-5.5 8.2-6 .6-.6 5.8-4.4 11.6-8.5s10.7-7.8 10.8-8.2c.2-.5.8-.8 1.2-.8.5 0 2.8-1.3 5.2-2.9 2.4-1.6 7.8-4.8 12.2-7.1l7.9-4.3 12.6 3.8c15.7 4.6 17.5 5.1 23.1 6.9 2.5.7 15.3 4.4 28.5 8.1 13.2 3.7 24.9 7.1 26 7.5 1.1.4 8.5 2.7 16.5 5 30.7 8.8 62.2 18.9 81.6 26.1 6 2.2 11.4 4.1 11.9 4.2.6.2 1.5.5 2 .8.6.4 2.7 1.2 4.8 1.8 2 .7 3.7 1.6 3.7 1.9 0 .4-1.1 4.3-2.6 8.7-2.8 9-5.5 19.6-6.9 28-.3 1.6-.8 3.7-1 4.5-.2.8-.7 3.9-1 6.9-.4 3-.8 6.3-1.1 7.4-2.1 10.9-2.1 44.8 0 66.3 3.2 32.7 13 69.8 25.7 97.2 1.6 3.5 2.9 6.6 2.9 6.9 0 .3.9 1.8 2.1 3.4 1.1 1.6 1.8 2.9 1.5 2.9-.9 0 10 17.7 15.7 25.4 8.1 11.3 18 21.8 27.2 29.2 15.2 12.1 37.7 21.5 62.5 25.9 5.9 1.1 34.2 1.4 40 .4 3-.5 6.9-1.1 8.5-1.4 10.3-1.7 21.4-6 40.1-15.6 40.1-20.4 53.3-32.5 75.1-68.7 11.4-18.9 18.2-34.2 22.4-50.3 2.7-10.7 2.6-10.2 4.4-24.4.2-1.7.5-6.7.5-11.2.1-7.1.5-8.7 3-12.5 3.4-5.2 9.2-11.3 23.2-24.1 7.6-7 12.5-12.4 16.9-19 9.3-13.9 15.5-21.4 20.1-24.3 4.4-2.8 3.8-2.8 21.8-.8 1.9.2 24.9.5 51 .8 40.4.4 73.2 1.2 83 2.1 1.4.1 3.4.3 4.5.4 1.6.1 3.1 2.3 6.2 8.9 14.2 29.9 41.8 58.1 71 72.6 26.2 13 51.6 16 78.4 9.1 15.4-4 26.3-10.6 43.1-26.1 12.3-11.3 21.8-16.7 41.7-23.6 19.5-6.7 25.8-10.6 33.7-21.1 8.8-11.6 15-27.9 17.2-45.2.9-7.1.8-28-.2-32.5-.3-1.3-.8-4.2-1.2-6.4-.3-2.2-1.6-7.2-2.8-11.1-1.6-5-2-7.9-1.4-10 .4-1.7 1-4.8 1.4-7 .3-2.2.7-4.2 1-4.6.2-.4.6-3.1 1-6 .3-3 .8-5.7 1-6.1.9-1.4 1.9-18.8 1.9-32.3 0-21.6-1.8-37-6.6-57.3-2.4-10.1-9.9-31.1-13.1-36.7-.6-1-2.1-3.7-3.3-6-1.2-2.2-3.6-6.3-5.4-9.2-3-4.9-3.2-5.7-3.5-16.3-.3-12.8-.6-12.1 9.4-19.6 3.6-2.6 8.4-6.6 10.8-8.9l4.2-4 .6-9.9c.2-5.5.6-10.2.8-10.5.4-.7 1.7-13.2 2.1-19.9.5-10.4-3.1-20.5-9.8-27.2-7-7-22.7-13.2-39.2-15.5-2.2-.3-5.1-.8-6.5-1-1.4-.2-5.1-.7-8.2-1-13.9-1.2-17.5-1.6-20.8-2-1.9-.2-6.4-.7-10-1-12.2-1.2-19-2.3-26.5-4.1-13.7-3.4-17.6-5.6-19.2-10.6-.6-1.8-3-8.7-5.4-15.3-2.3-6.6-16.2-47.8-30.9-91.5-14.6-43.7-27-80.2-27.4-81.2-.6-1.3 1-2.4 8.6-6 19.2-9.1 34.6-21.5 39.8-32.1 5-10.4 5.1-23.8.1-39.4-1-3.3-4.5-12.2-7.6-19.9-5.4-13-9.1-22.9-10-26.4-12.5-48.4-17.9-67-21.1-71.7-.7-1.2-1.4-2.8-1.4-3.5 0-.7-1.5-3.3-3.4-5.8-2.8-3.8-4.2-4.8-9.4-6.3-8.5-2.5-9.1-3.3-9.1-12.5 0-4.2-.3-8.8-.6-10.2-.3-1.4-.8-4.1-1.1-6-1.2-7.4-6.2-17.6-12.3-25-14.9-18.5-36.7-28-65.1-28.5-11-.2-13.4-.5-13.1-1.6.2-.8.6-4.8 1-8.9.7-7.7-.5-14.1-3.2-18-1.2-1.8-1-3.4 1.4-12.8 4.2-16.7 5.3-24.4 5.3-40.7 0-11.3-1-30.9-1.9-36.5-.2-1.4-.6-6.6-1-11.5-.3-5-.8-9.7-1-10.5-.3-1.3-1.3-8.9-2-16-.3-3.2-1.7-11.7-3-18-.2-1.4-.7-4.1-1-6-3.2-19.5-11.4-40.4-28-71-10.5-19.5-19.8-39.6-23.5-51-2.2-6.6-4-12.9-4-14 0-2.9-25.7-39.5-36.5-51.9-1.3-1.4-5.3-6.2-9.1-10.6-11-12.9-34.8-36.2-44.1-43.2-2.1-1.5-4.7-3.6-5.8-4.6-2.7-2.4-20.7-14.7-27-18.4-10.2-5.9-20.5-8.5-34.3-8.6-5.3 0-11.9.3-14.7.7-2.7.4-6.6.9-8.5 1.2-1.9.3-6.6 1.1-10.5 1.9-11 2.2-12.6 2.5-20 3.5-11.9 1.7-18.8 1.8-23.5.3-6.8-2.1-15.7-2.8-36-2.8-16.3 0-30.1.7-38 1.9-1.4.2-4.3.7-6.5 1-9.1 1.3-12.6 1.9-24 4.2-19.8 4.2-53.7 14.3-65.2 19.5-2.4 1-4.7 1.9-5.2 1.9-.8 0-25.5 10.1-36.3 14.8-4.5 2-4.7 2-6.3.2-3.7-4.1-9.6-4.7-32.7-3.6-3.7.2-8.2.1-10-.3l-3.3-.7-.1-18.4c0-13.1.3-19.3 1.2-21.1.7-1.4 3.9-5.7 7-9.5 5.5-6.7 8.3-11.8 9.8-17.9.4-1.7 1-3.9 1.3-5 1.2-4.7 1.4-18.5.4-24-4.1-22.7-24.8-41.7-52.1-47.8-7.1-1.6-20.5-2-26-.7zm653.7 747c1.4 1.8 3.7 12.9 2.8 13.8-.6.6-.9.7-7 1.7-6.2 1-25.4 6.2-31.5 8.6-8.8 3.4-9.3 3.4-11.2.1-1.6-2.7-2.3-6.5-1.9-10 .1-1.1 7-4.8 10.6-5.6.6-.2 1.7-.6 2.5-.9.8-.4 8-2.9 15.9-5.7 8-2.8 14.7-5.2 14.9-5.5.6-.6 3.2 1.3 4.9 3.5zm-108.2 146.2c5.1 2.5 12.1 3.8 20.8 3.9 10.7.1 17.8-.9 34.2-4.7 1.1-.2 3.6-.7 5.5-1l3.6-.6 2.6 7.9c1.5 4.3 4.9 13.9 7.6 21.3 4.7 12.8 10 31.6 9.1 32.4-.2.2-2.5.7-5 1-8.3 1.1-23.6 7.5-35.5 14.8-5.4 3.2-16.1 8.3-19.9 9.4-2.7.7-10.2 1.9-11.5 1.8-.8-.1-2.6-.2-4-.3l-2.5-.1v-12.3c.1-6.7-.5-15.9-1.1-20.3-.7-4.5-1.5-10.1-1.8-12.5-.5-3.5-3.5-16.8-7.1-30.9-.8-3.1-3.2-11.6-4-13.9l-.7-2.4 3.3 2.5c1.9 1.4 4.8 3.2 6.4 4zM1101 274.9c-.8.5-5.3 1.8-10 3-12 3-22.2 6.2-49 15.1-57.8 19.3-97 34.7-139 54.8-17.6 8.3-50.2 24.2-56 27.1-11.7 6-32.8 17.1-39 20.5-3.6 1.9-9.2 4.9-12.5 6.7-3.3 1.7-12.7 7-21 11.7-8.2 4.7-16.4 9.3-18.2 10.3-32.1 18.1-93.4 57.8-127.3 82.4-16.2 11.8-49.1 36.8-63 48-14 11.3-53.5 44.5-55 46.4-.3.3-4.5 4.2-9.5 8.6-15.3 13.5-22 20-53 51-26.7 26.6-39.6 40.1-54.6 57-2.4 2.7-4.7 5.2-5 5.5-1.6 1.4-28.7 33.3-37 43.6-3.5 4.4-6.6 8.1-6.9 8.4-.3.3-3 3.6-6 7.5-3 3.8-6 7.7-6.7 8.5-2.2 2.7-13.8 17.6-15.6 20.1-.9 1.3-4.7 6.4-8.4 11.4-9.7 13-28.6 39.6-37.1 52.2-10.1 15-25.8 38.8-26.6 40.4-.3.8-1.9 3.4-3.6 5.9-1.6 2.5-4 6.3-5.3 8.5-1.3 2.2-5.8 9.6-10 16.3-4.3 6.8-7.7 12.5-7.7 12.7 0 .1-3 5.4-6.7 11.6-26.3 45.1-55.9 102.7-80 155.9-1.4 3-3.6 7.9-4.9 10.9-4.3 9.3-23.4 54.6-24 56.6-.1.5-2.1 5.4-4.3 10.8-10.2 24.6-25.9 69.5-34.1 97.7-1.2 4.1-2.6 8.6-3.1 10-.5 1.4-1.1 3.4-1.3 4.5-.2 1.1-1.4 5.4-2.6 9.5-5.9 20.5-16.7 63.9-20.4 82-.3 1.4-2.3 11.5-4.5 22.5-2.3 11-4.5 22.2-5.1 25-.6 2.7-1.2 6.6-1.5 8.5-.3 1.9-.7 4.6-1 6-.3 1.4-1 5.4-1.6 9-.5 3.6-1.2 7.8-1.5 9.5-.3 1.6-.7 4.1-.9 5.5-.5 3.4-1.4 9.5-2.5 16-.5 3-1.1 7.5-1.4 10-.4 2.5-.8 5.4-1 6.5-.2 1.1-.7 4.7-1 8-.4 3.3-.9 7.5-1.2 9.2-.2 1.8-.6 4.8-.8 6.5-.3 1.8-.8 6.1-1.1 9.6-.4 3.5-.8 7.1-1 8.1-.2 1-.6 5.4-1 9.7-.4 4.3-.8 9-1.1 10.4-.2 1.4-.6 5.5-.9 9-.3 3.6-.7 8.5-1 11-.3 2.5-.7 8.5-1 13.5-.4 4.9-.8 11.1-1 13.6-.2 2.6-.7 9.1-1 14.5-1 18.4-1.6 27.1-2.4 35-1.2 11.1-.6 39.1.8 43.6 1.8 5.6 5.1 9 9 9.3 8.7.7 11.1-8.4 11.6-45 .3-14.3.6-28.5.9-31.5.2-3 .8-9.8 1.1-15 .4-5.2.9-10.6 1-12 .2-1.4.6-5.4 1-9 1-10 1.8-17.2 3.5-29.5.5-3.9 1.2-9 1.5-11.5.4-2.5 1.3-8.6 2-13.5.8-5 1.7-10.8 2-13 .6-3.8.9-6 2-11.5.3-1.4.8-4.3 1-6.5.3-2.2.8-4.7 1-5.5.2-.8.7-3.1 1-5 .8-4.9 4.1-21.4 7.1-35 17-77.2 39.8-147.4 71.1-218 9.2-20.6 29.8-63.1 37.8-77.5 1.5-2.8 4.1-7.5 5.7-10.5 1.6-3 3.3-6.2 3.8-7 2.1-3.3 14-24.3 14-24.7 0-.2.9-1.6 1.9-3.1 1-1.5 6.3-9.9 11.6-18.7 8.9-14.6 35.5-55.3 38-58.2.5-.7 3.3-4.4 6-8.4 32.6-46.8 79-104.7 119.4-148.8 32.5-35.5 74.2-76.4 105.6-103.6 5-4.3 9.2-8.1 9.5-8.4 1-1.2 29.7-24.9 40.5-33.5 6.1-4.8 11.7-9.3 12.6-10 2.1-1.7 12.5-9.6 15.9-12.1 1.5-1.1 9.9-7.2 18.6-13.6 46.4-34 107.4-72.7 153.4-97.2 4.1-2.2 10.7-5.8 14.5-8 8.5-4.7 66.2-33.5 79.5-39.6 49.3-22.7 95.4-41.8 142.7-59.2 9.4-3.5 17.1-6.5 17-6.8-.1-.5 1.5-9.6 2.7-15.6 3.3-16.3 14.2-49.6 20.6-63.3 1.7-3.4 3-6.5 3-6.8 0-.7 9.3-19.7 10-20.4.3-.3 1.6-2.7 3-5.5 5.9-11.8 20.8-35.4 35.3-56 5.7-8.1 30.4-41.3 35.4-47.5 2.1-2.6 10.7-14.2 19.6-26.3 7.9-10.6 9-13.2 4.7-10.8zM1907 279.3c0 .7 2.4 3.7 5.3 6.8 2.8 3 8.8 9.5 13.3 14.4 21.8 24.2 27.4 31.7 52.9 69.5 7.6 11.3 15.7 23.2 18 26.5 2.3 3.3 5 8 6 10.5 3.2 7.9 5.6 13.1 14.3 31 9.4 19.6 11.7 24.4 15.9 34.5 6 14 11.4 33.6 12.8 45.9.4 3.3.9 6.7 1 7.5.2.9.4 2.4.4 3.4.1 2-.6 1.7 20.6 9.7 8.8 3.3 16.9 6.5 18 6.9 1.1.5 12.1 5.1 24.5 10.1 12.3 5.1 24.7 10.3 27.5 11.5 2.7 1.2 10.4 4.6 17 7.5 32.8 14.4 81.7 38.4 112.5 55.3 93 50.7 165.3 99.1 242.7 162.5 9.7 7.9 19 15.6 20.7 17.2 1.7 1.5 8.7 7.6 15.6 13.6 6.8 6 13.2 11.6 14 12.4.9.8 7 6.4 13.6 12.5 18.3 16.8 66.1 65 83.4 84 13.7 15.1 31.6 35.6 43.5 49.9 2.2 2.7 4.5 5.4 5 6 1.5 1.6 17.9 22.5 25.6 32.6 12.2 15.9 27.1 36.6 43.4 60.5 6.6 9.6 32.5 50.4 32.5 51.1 0 .3 1.5 2.9 3.4 5.7 4.2 6.6 17.9 30.7 28.4 50.2 14.2 26.4 33.4 66.7 45.4 95.5 6 14.3 6.1 14.4 6.4 15.5.1.5 2.4 6.2 4.9 12.5 9.6 23.5 23.4 63.2 32.5 93 1.7 5.8 3.5 11.6 4 13 6.1 17.9 20.5 78.5 27.4 115 .3 1.4.9 4.7 1.5 7.5.5 2.7 1.2 6.8 1.5 9 .4 2.3.8 5 1 6 .2 1.1.7 4 1.1 6.5.4 2.5.9 5.2 1 6 .3 1.9 1.8 12.1 2 13.5 0 .5.4 3.5.9 6.5 1.4 9.6 1.5 10.4 2 15.5.6 4.9 1.2 9.7 2 16.5.3 1.9.7 6.4 1.1 10 .4 3.6.8 7.9 1 9.5.2 1.7.6 6.6 1 11s.8 9.6 1 11.5c.2 1.9.6 8.7 1 15 .4 6.3.8 13.1 1 15 .3 1.9.4 10.9.3 20-.2 35-.1 37.6 2.1 42.4 3 7 10.4 8.8 14.3 3.6 3.9-5.3 4.8-16.1 4.2-53-.2-19-.6-36.5-.8-39-.2-2.5-.6-9.9-1-16.5s-.9-13.1-1.1-14.5c-.2-1.4-.7-6.3-1.1-11-.3-4.7-.8-9.9-.9-11.5-1.4-12.8-1.7-16.4-2-19.5-.6-6.1-3-27.3-4-34.5-.2-1.7-1.4-9.9-2.5-18.3-1.2-8.4-2.3-16-2.4-17-.4-1.8-1.5-9-2.1-13.2-.2-1.4-.7-4.5-1.1-7-.3-2.5-.8-5.4-.9-6.5-.4-2.7-3.4-19.5-4-22.5-.3-1.4-.7-4-1-5.9-.2-1.8-.7-4.1-.9-5-.3-.9-.7-3.2-1-5.1-.3-1.9-.8-4.6-1.1-6-.3-1.4-1.2-5.9-2-10-1.3-6.7-5.1-25-6-29-1.1-4.7-3.7-16.8-4.1-18.8-.3-1.3-3.2-13-6.5-26-3.3-13.1-6.2-24.6-6.4-25.7-2.1-9.3-13-46.4-20.7-70.5-2.2-6.9-4.1-13.2-4.3-14-2.6-9.6-28.9-81.2-34-92.5-.7-1.7-2.3-5.4-3.5-8.4-1.1-3-3-7.4-4.1-9.7-1-2.4-1.9-4.5-1.9-4.8 0-.3-1.1-2.9-2.4-5.8-1.3-2.9-4.1-9.1-6.1-13.8-10.7-24.3-31.1-66.7-42-87-3.1-5.8-8-14.8-10.8-20-2.7-5.2-6.1-11.2-7.4-13.2-1.3-2.1-2.3-4-2.3-4.2 0-1-29.7-51-37.5-63.1-12.4-19.4-41.8-63.1-46-68.7-1.1-1.4-2.7-3.6-3.5-4.8-4.2-6.5-41.4-55.6-52.5-69.5-11.7-14.6-37.1-45.3-38.5-46.5-.3-.3-3.2-3.7-6.5-7.5-3.3-3.9-6.2-7.2-6.5-7.5-.3-.3-4.6-5-9.5-10.5-20.2-22.6-32.7-35.8-61-64-27.4-27.3-31.6-31.4-51-49-18.6-16.8-19.3-17.4-31.5-27.9l-14-12c-1.4-1.2-6.1-5-10.5-8.6-4.4-3.5-8.2-6.7-8.5-7-.3-.3-3.4-2.8-6.9-5.5l-10-8c-4.2-3.6-11.4-9-27.1-20.8-6.3-4.8-11.9-9-12.5-9.4-.5-.5-3.4-2.6-6.4-4.7-3-2.1-5.9-4.3-6.5-4.8-4.6-3.9-52-35.8-74.9-50.4-4.2-2.7-9-5.7-10.5-6.6-1.5-1-3.4-2.1-4.2-2.5-.8-.3-3.4-1.9-5.7-3.5-2.3-1.5-4.5-2.8-4.9-2.8-.4 0-1.5-.6-2.3-1.4-2.5-2.1-44.4-26-65.6-37.3-15.4-8.3-74.1-37.1-88-43.3-20.8-9.3-47.2-20.4-63-26.7-7.7-3-17.1-6.8-21-8.3-23.7-9.5-108.1-38-112.5-38-.6 0-1 .6-1 1.3zM2152.3 792.1c-3.4 1-4.3 3.1-4.7 11.3-.4 6.1 1 10.3 3.6 11 6.4 1.7 16-.1 17.8-3.3 1.3-2.6.6-10.6-1.3-13.5-3.3-4.9-9.4-7.1-15.4-5.5z"/><path d="M706.4 834.1c-4.4 1.3-6.6 4.1-6.7 8.8-.2 8.1 7.7 13.6 15.8 10.9 5.5-1.9 7.9-5.5 7-10.6-1.3-8.1-7.5-11.6-16.1-9.1zM955.4 847c-11.7 3.3-19.2 9-23.6 18-3 6.2-3.1 18.5-.2 25 6.4 14 25 22.1 42.3 18.5 15.5-3.2 24.2-14.2 23.6-30-.3-9.4-2.7-13.8-13.2-24.2l-8.5-8.4-7.3-.3c-4.4-.1-9.6.4-13.1 1.4zM875.7 926.4c-9.1 3.3-15.2 12.2-24.3 35.5-7.4 18.7-6.9 18-11.8 17.9-2.2-.1-6.8.2-10.1.6-7.1.9-30.4 6.3-32.4 7.5-2.2 1.4-1.7 9.9.9 15.4 1.7 3.5 5.3 7.5 13.8 15 6.4 5.7 12.5 11.7 13.5 13.5l1.9 3.3-4.5 9.7c-4.4 9.5-5.3 11.8-6.2 16.1-.3 1.2-.7 3.1-1 4.3-1.3 5.4-.6 14.4 1.4 18.9 2.4 5.4 3.7 5.8 13.9 5.3 9-.4 15.7-2.6 34.5-11.3 3.8-1.7 7.6-3.2 8.5-3.3.9-.1 6 1.9 11.2 4.5 12.1 6 22.9 8.8 35 9.2 10.3.4 18.1-1.1 23.6-4.6l3.3-2-.4-7.2c-.4-7.5-3-22-4.5-24.8-.5-.9-1.2-2.9-1.4-4.5-.3-1.6-1-4.5-1.6-6.4-.9-3-.6-3.9 1.7-7.5 1.5-2.2 6.2-7.4 10.6-11.5 9.6-9.2 12.1-13.5 11.5-20.2-.9-8.5-6.4-12.4-22.3-15.3-4.9-1-9.4-1.8-10-1.9-2.5-.5-6.4-1.9-10.5-3.7l-4.6-2-4.3-13.2c-7-21.7-13.1-32.6-20.3-36.3-4.1-2.1-10.8-2.5-15.1-1zM2271 961.5c-17.1 4.6-27.3 17.2-27.9 34.6-.3 8 2.7 15.5 8.4 21.2 16.4 16.1 46.3 10.3 56.3-11.1 2.3-4.9 2.7-7 2.7-14.7 0-7.6-.5-9.9-2.6-14.5-3.2-6.9-7-10.6-13.5-13.7-6.1-2.8-16.7-3.6-23.4-1.8zM414.5 1083.7c-6.7 2.3-14.4 10-16.8 17-6.7 19 2.4 40 19.3 44.7 7.1 2 13 2 20.5.1 9.6-2.5 16-8.1 20.6-18 2.4-5.3 2.7-7 2.6-14.5-.2-7.3-.7-9.3-3.2-13.8-5.9-10.7-15.5-16.2-29.4-16.8-6.3-.3-9.9.1-13.6 1.3zM2182.9 1103.3c-3 2-3.5 2.9-3.9 7.5-.7 6.3 1.5 13.8 4.3 15.4 3 1.6 10.8 1.3 14.4-.6 4-2 5.3-4.3 5.3-9.5 0-5.3-1.2-8.1-5-11.9-4-4.1-9.9-4.4-15.1-.9zM2449.5 1166.5c-7.3 2.1-17 7.9-28.5 17.1-15.9 12.6-31.9 33.6-42.3 55.7-3.5 7.2-3.9 7.7-6.4 7.3-1.6-.3-4.8-.8-7.3-1.1-2.5-.3-5.6-.8-7-1-2.4-.3-7.3-.9-17.5-2.1-2.7-.3-12-.7-20.5-.9-19-.4-33.2 1.8-39.7 6.1-2.3 1.5-2.5 1.9-1.8 7.2 2.6 21.2 8.1 30.6 31.5 54.7 8.6 8.8 17.1 17.9 18.9 20.3l3.3 4.3-5.6 11.2c-7 14.3-12.2 27.9-14 36.7-.3 1.4-.8 3.6-1.2 5-.8 3.3-1.5 27.8-.8 31.2.5 2.3 1.5 2.9 7.3 4.5 6.9 1.9 17.6 2.2 27 .9 6.5-.9 22.8-6.5 32.9-11.2 4-1.9 7.4-3.4 7.6-3.4.3 0 3.7-1.5 7.8-3.4 10-4.6 11.6-5 13.1-3.4.7.7 4.4 5.1 8.2 9.8 23.5 28.6 40.4 40 63.4 42.6l5.6.6 3.7-4.9c11.3-15 17.1-36.5 17.2-64.3.1-15.2-1.3-24.8-4.9-34.9-1.2-3.6-1.3-4.7-.3-5.7.7-.6 6.5-3.8 12.8-7 27.7-14 40.2-22.8 45.5-31.8 8-13.8.6-22.1-30.5-34.3-8.4-3.3-23.3-8.3-26-8.8-.3-.1-1.4-.4-2.5-.8-1.1-.3-3.1-.9-4.5-1.1-6.2-1.3-11.6-2.8-12.2-3.4-.6-.7-1.3-4.9-2.3-15.7-.3-3.3-.8-7.6-1.1-9.5-.2-1.9-.7-6-1-9-.2-3-.7-6.6-.9-8-.2-1.4-.9-5.6-1.5-9.4-.6-3.8-1.3-7.2-1.5-7.6-.2-.4-.7-2.1-1-3.8-1.4-8.2-6.1-19.1-10.5-24.4-3.9-4.7-7.3-5.9-12.5-4.3zM664.8 1170.5c-.2.2-1.7.5-3.4.8-7 1.1-10.4 4.9-10.4 11.5 0 9 5.6 13.8 14.7 12.7 4.7-.6 10.4-4 12.2-7.3 2.5-4.7 1.1-12.3-2.7-14.8-2.4-1.6-9.7-3.6-10.4-2.9zM396.6 1258.9c-.2.3-1.1 3.3-2 6.7-2.1 8.1-2.8 18.2-2.8 41.7v19.7l-10.6 9.8c-22.1 20.2-26.8 26-30.2 37.1-2.4 7.7-2.4 8.3-.2 10.8 3.7 4.3 10.9 6.7 23.7 7.8 16.3 1.4 22.3 2.3 23.1 3.6.2.5.7 5.7.9 11.6.3 6 .6 12 .9 13.6.2 1.5.7 5.5 1.1 9 .4 3.4.8 6.4 1 6.7.2.3.7 3.3 1 6.5.4 3.3 1.2 6.6 1.8 7.3 1.2 1.5 6.6 4.1 15.1 7.2l5.6 2.2 4.8-2.8c6.5-3.8 18.7-16.4 24.6-25.4 4.7-7 11.1-19.3 16.2-30.8l2.3-5.2 10.3-.1c5.7 0 12.3-.2 14.8-.4 4.4-.4 15-1.7 16-2 .3-.1 2.3-.5 4.5-.9 6.1-1.2 17.8-7.2 20-10.3 2.7-3.8 2.7-13.3.1-18.8-2.4-4.8-4.2-7.2-15.5-19.4-4.7-5.1-9.8-11.1-11.2-13.3l-2.6-3.9 2.4-6c3.8-9.3 5.5-19.4 5.5-30.9 0-13.3-.8-15.4-6.1-16.7-11.7-3-26.4-.3-42.9 8l-6.8 3.4-4.9-4c-12.2-9.8-25.3-17.2-35.9-20.2-5.9-1.7-23.2-2.9-24-1.6zM2639.7 1363.6c-.1.1-2 .5-4.1.8-9.4 1.5-19.6 9.8-24.6 20-3.7 7.6-4.8 12.6-4.4 20.2.3 7.3.8 9.5 3.4 14.8 5.5 11.4 17.8 17.7 33.7 17.1 11.3-.5 15.7-2.1 21.7-8.1 6.6-6.6 9.7-14.5 10.1-25.8.8-18.6-9.7-34.9-24.4-38.1-3.4-.7-10.9-1.3-11.4-.9zM562.3 1467.5c-3 2.1-6.3 7.7-6.3 10.7 0 3.5 3.9 6.6 9.5 7.7 4.5.8 5.2.7 8.2-1.7 3.1-2.5 3.3-3 2.8-7.7-.6-6.8-3.1-9.9-8.1-10.3-2.3-.2-4.8.4-6.1 1.3zM640.3 1558.8c-7.8 2-15.3 6.9-20.1 13.4-4.8 6.3-6.7 11.3-7.1 18.6-.6 12.7 5 22.5 16.4 28.2 6.7 3.4 7.3 3.5 18.5 3.5 6.3 0 12.7-.3 14.2-.8 1.5-.4 4.3-2.8 6.2-5.3 13.1-17.2 10.2-47-5.3-54.9-8.1-4-14.3-4.8-22.8-2.7zM2541.5 1613.5c-1.6.8-3.7 2-4.5 2.7-5.1 4.4-5 12.7.3 18.5 3.9 4.4 15.5 2.2 19.5-3.7 2.6-4 2.8-8.3.4-13-2.8-5.7-9.2-7.6-15.7-4.5zM2245.5 1683.2c-13.7 4.4-23.3 14.9-26.4 28.9-1.7 7.7-.7 18.7 2.3 25.1 5.6 11.9 17.1 18.8 30.6 18.4 6.4-.1 8.4-.7 13.8-3.6 7.9-4.2 15.5-12.4 19.6-21 2.6-5.6 3.1-7.8 3.3-15.5.2-7.7-.1-9.8-2.2-14.2-2.9-6.4-9-12.4-16.1-15.9-4.3-2.1-7.1-2.7-13.7-2.9-4.5-.1-9.5.2-11.2.7zM2536.7 1981.6c-.1.1-4.4.4-9.6.8-22.9 1.6-47.7 9.6-57.1 18.3-1.4 1.3-2.8 2.3-3.2 2.3-.3 0-3.3 3.3-6.5 7.3-12.1 15-21 36.9-25.7 63.3-.3 1.6-.8 4-1.1 5.4-.6 3.2-1.3 8.8-2.1 17-.3 3.6-.7 7.1-.9 7.7-2.6 8.1-2.6 93.2-.1 108.3.3 1.4.7 5 1 8 .6 5.3 1 7.6 2.1 13.7.3 1.6.8 4.4 1.1 6.3 2.2 14.6 10.5 37.9 17.6 49.7 6.5 11 18.2 21.1 31.3 27.2 10.6 5 26 9.3 38.5 10.8 8.1 1 34.8 1 41.5 0 16.4-2.4 32-6.9 42.7-12.3 9.4-4.6 18.8-11.6 24.9-18.3 6.2-6.9 13.9-20.9 16.6-30.5 1.9-6.7 5.1-19.3 5.7-22.5.3-1.4.7-3.5 1-4.7.2-1.2.7-4.5 1.1-7.5.3-3 .8-6.1 1-6.9.2-.8.6-3.8.9-6.5.3-2.8.8-6.8 1-9 2.8-23.7 2.8-85.3.1-104.9-.4-3.1-1-7.9-2-16.7-.3-2.6-.7-5.5-.9-6.5-.2-1.1-.7-3.9-1.1-6.4-2.4-15.9-10.2-39.9-16.3-50.9-9.5-17.1-23.9-29-42.2-35-8.5-2.7-23.6-5.7-33.3-6.6-6.8-.7-25.5-1.3-26-.9zm38.9 50.1c5.4 6.7 10.4 20.7 11.9 33.3.3 3 .8 7.3 1.1 9.5 1.1 7.7 2.1 153.1 1.2 157-.3 1.1-.9 3.8-1.2 5.9-1.8 10-8 21.7-15.1 28.7-10.6 10.6-33.9 15.9-54.2 12.5-4.1-.7-4.2-.9-7.3-8.3-3.4-8.1-8.3-26.3-9.6-35.3-.4-3-.9-6.4-1-7.5-.2-1.1-.6-4.9-.9-8.5-.3-3.6-.8-7.5-1-8.8-2.8-16.3-2.2-96.1 1-123.9 3.9-34.7 20.5-54.4 48-57 3.3-.3 6.1-.6 6.3-.8.1-.1 4.4 0 9.4.1 8.7.4 9.4.6 11.4 3.1zM150.5 1983c-2.7.4-7 1.1-9.5 1.5-2.5.3-8.4 1.9-13.1 3.5-26.1 8.7-43.8 26.1-52.5 51.6-2.9 8.6-4.1 17.5-4.1 31-.1 21.6 4.3 36.4 15.6 52.7 10 14.2 29.3 31.5 47.3 42.2.9.5 4.8 2.9 8.5 5.1 3.7 2.3 8.9 5.3 11.6 6.8 2.6 1.4 6.8 3.8 9.5 5.3 2.6 1.4 5.6 3.1 6.7 3.7 1.1.6 2.2 1.3 2.5 1.7.3.3 2.3 1.6 4.5 2.9 5.4 3.3 7 4.6 13.6 11.1 9.1 8.9 12.7 17.8 12.7 31.3 0 9.3-1.1 14.4-4.7 22.1-3.4 7.3-7 11.1-13.6 14.1-6.2 2.9-11 3.7-19.6 3.6-12.5-.1-22.1-4.1-42.9-17.5-13.7-8.9-22.4-12.6-28.3-12.1-7.6.7-19.4 9.4-24.7 18.2-1.9 3.1-3.7 10.7-3.1 12.7.2.5.4 1.5.5 2 .5 2.9 6.1 10.7 12 16.7 15.5 15.9 34.3 25.5 60.2 30.9 13.8 2.9 19.8 3.4 37.4 3.4 24.6 0 36.7-2.3 52.6-10 7.4-3.6 10.3-5.7 15.5-11.3 12.9-13.9 23.4-38 26.6-61 1-7.3 1-37.5 0-42.7-3.2-16.9-10.5-29.9-23.5-41.9-4.6-4.2-18.7-14.6-19.9-14.6-.3 0-1.4-.6-2.2-1.4-1.7-1.4-7.1-4.4-23.1-12.9-15.3-8-17.3-9.2-26.1-15.3-25.7-17.5-39.9-35.6-39.9-50.7 0-10.3 6.2-21 16.7-28.9l5.6-4.3 9.7-.2c11.2-.2 17.1 1 35.5 7.2 12.3 4.1 15.7 4.9 24.9 6.1 4.4.6 4.7.2 10-9.1 4.6-8.1 6.6-14.4 7.3-23.1l.5-7.2-4.3-3.2c-4.3-3.1-15.6-9.1-19.5-10.3-4.4-1.3-17-4.9-18.4-5.2-4-1-15.9-3.4-19.5-4-5.9-1-29.2-1.3-35-.5zM627.9 1982.4c-.2.2-3.1.6-6.4 1-7.8.7-12.2 1.6-22.5 4.1-4.3 1.1-6 1.9-6.1 2.9 0 .6-.2 2.1-.5 3.3-.5 2.9-3.1 17.2-5.5 30.8-1.1 6-2.1 11.7-2.4 12.5-.2.8-.7 3.3-1 5.5-.3 2.3-.8 5.2-1 6.5-.7 3.4-1.4 7.3-3 16-.8 4.1-2.5 13.6-3.9 21s-2.8 15.1-3.1 17c-.3 1.9-1.4 8-2.5 13.5-1 5.5-2.2 11.6-2.5 13.5-.3 1.9-1.7 9.6-3 17-1.4 7.4-2.7 15.2-3.1 17.4-.3 2.1-.8 4.8-1 6-.2 1.1-1.3 7.5-2.5 14.1-2.1 12.8-2.2 13.5-3.9 23.5-.5 3.6-1.2 7.6-1.4 9-.2 1.4-.7 4.6-1 7.1-.4 2.5-.9 5.7-1.1 7-.2 1.3-.8 5.1-1.4 8.4-.5 3.3-1.3 8.5-1.6 11.5-.4 3-.8 5.7-1 6-.1.3-.6 3.6-1 7.3-.3 3.7-.8 7.6-1 8.6-.2 1-.6 4.2-1 7.2-.3 3-.8 6.5-1 7.9-.2 1.4-.6 4.7-1 7.5-.3 2.7-.7 6.5-1 8.3-.2 1.8-.7 6.5-1 10.5-.6 7-.6 7.4 1.7 8.9 5 3.2 18.8 5.6 30.3 5.2 12-.4 24-1.6 24.9-2.5.6-.5 3.5-10.9 4.2-14.9.2-1.4.9-4.5 1.4-7 .5-2.5 1.2-6.3 1.5-8.5.3-2.2.7-5.1 1-6.5.5-3.3 2.8-20.2 3.9-28.7 2-15 2.8-20.5 3.6-24.8.6-2.8 1.3-6.8 1.6-9 .3-2.2.9-4.4 1.4-4.8.6-.7 32-1.1 56.3-.8 5.6.1 5.9.5 8.8 14.6 1.8 8.8 2.3 13.8 3.4 30 2 28.5 4 40.4 8.1 48.7 2.8 5.6 5.8 8 13.2 10.9 7.2 2.7 23.9 3.3 36.2 1.3 4.7-.7 8.6-1.4 8.8-1.4.4 0-.7-9.5-1.3-12-.2-.8-.6-4-1-7.1-.3-3.1-.7-6.5-.9-7.5-.3-1.7-1.3-8.1-2.2-14.4-.3-2.2-2.7-18.2-3.9-26.3-1.4-9.1-1.7-11.4-2-13.7-.4-2.6-3.5-22.3-5.5-34-.6-3.6-1.3-7.9-1.6-9.5-.3-1.7-1-5.7-1.6-9-.5-3.3-1.2-7.4-1.5-9-.2-1.7-1.6-9.1-3-16.5-1.3-7.4-2.6-14.9-2.8-16.5-.4-3.3-12.4-61.8-15-73-.9-3.9-1.8-8.1-2.1-9.5-.3-1.4-1-4.3-1.6-6.5-.5-2.2-1.2-5.1-1.5-6.5-.2-1.4-.9-4.3-1.4-6.5-1.1-4.4-2.6-10.6-3.5-14.4-.3-1.3-3-11.6-5.9-22.7-3-11.2-5.5-20.5-5.5-20.8 0-1.1-15.1-5.7-22-6.6-2.9-.3-35.8-.9-36.1-.6zm21.6 93.6c.3 1.9.7 4.2 1 5 .4 1.6.9 4 2.5 12.5.5 2.7 1.2 6.1 1.5 7.5.3 1.4.7 4.1 1 6 .3 1.9 1.1 6.9 2 11 .8 4.1 1.7 9.1 2 11 .3 1.9 1 6 1.5 9s1.2 7.3 1.5 9.5c.3 2.2.8 4.9 1 6.1.3 1.2.7 3.9 1 6 .3 2.1.8 4.8 1 6 .4 2 .1 2-21 2.1H623l.5-2.5c.2-1.4.7-4.6 1.1-7.1.4-2.5.8-5.5 1-6.6.3-1.1.7-4 1-6.5.3-2.5.7-5.6.9-7 1.2-7.3 3.6-22.8 4-25 .2-1.4.6-3.9.9-5.5.3-1.7 1.2-7.1 2-12 .8-5 1.8-11 2.2-13.5.3-2.5.8-5.4 1-6.5.9-6.6 1.6-10.6 2.4-15 .5-2.8 1.2-7 1.5-9.5.4-2.4.9-4.9 1.2-5.4.5-.8 5.1 19.7 6.8 30.4zM904.5 1983c-2.7.4-7.5 1.1-10.5 1.4-3 .4-6.3.9-7.2 1.2-1.6.5-4.2 1.1-8.7 2-1.4.3-5.2 1.4-8.5 2.5-20.5 6.9-30.2 15.2-39.5 33.6-3.4 6.8-10.7 25.4-11.1 28.1 0 .4-.5 2.3-1 4.4-.8 2.9-4.1 17.8-5.5 24.8-.3 1.5-1.2 8.7-2 15-.2 1.9-.7 5.1-.9 7-.6 3.4-1.3 11.3-2.2 23.5-.5 7.7-.6 53.1 0 61.1.2 3.3.7 8.7 1 12 .3 3.2.8 8.1 1.1 10.9.3 2.7.7 6.1.9 7.5.3 1.4.7 4.7 1.1 7.4 4.3 33.9 16.6 65.9 29.7 77.1 16.5 14.2 34.2 21.1 61.8 24.4 7.3.8 42.4.7 46.6-.3 1.1-.2 5.6-.7 10-1.1 13.5-1 23.5-3 28.5-5.6 6.2-3.1 8.9-11.7 8.3-26.2-.1-4.5-.5-9.3-.7-10.7-1.3-7.3-2-10-3.1-10.9-2.8-2.3-22.7-3.3-32.6-1.7-3.8.6-16.9 3.1-21 4.1-1.4.3-7 .7-12.5 1-20.1.8-31.8-5-38.3-18.8-4.6-9.7-6.8-19.6-8.8-39.7-.7-7.4-.7-106.1.1-116 1.5-21 3.3-30.6 7.7-42 3.6-9.2 9-15.5 16.4-19 5.6-2.6 8.5-3.2 19.4-3.5 10.2-.4 12.6-.1 32 4 6.9 1.5 16 2.9 20.4 3.2l7.8.5 3.3-3.6c6.2-7 10.9-19.4 12.1-32.2.6-5.9.6-6-2.9-8.6-9-7-23.3-12.4-40.2-15.4-2.2-.3-5.1-.9-6.5-1.1-4.4-.8-39.3-1-44.5-.3zM1472.8 1982.5c-.1.1-2.1.5-4.4.8-2.3.3-7.2 1.7-11 3-6.4 2.2-6.9 2.6-7 5.3 0 1.6.3 4.2.8 5.9.5 1.6 1.7 7 2.8 12 1.7 7.7 5.5 23.5 11.6 48 .9 3.3 1.7 6.9 2 8 .5 2.8 16.1 60.9 17.9 67 1.6 5.3 8.2 28.9 9.5 34 .5 1.6 2.6 9.3 4.8 17 5.8 20.4 18.1 63.9 20.3 72 1.1 3.8 3.1 11 4.5 16 1.3 4.9 2.6 9.7 2.8 10.5 2 7.9 8.9 33 9.6 34.7 1.1 2.7 7.1 5.5 17.1 8.2 15.6 4.1 28.5 4.5 42.1 1 3.5-.9 3.8-1.3 6.8-9.6 5.3-14.8 18.1-61.7 21.6-79.3.3-1.4 1.2-5.2 2.1-8.5.8-3.3 1.7-7.1 2-8.4.2-1.4.6-2.8.8-3.1.2-.4.6-2 .9-3.6 2-11 14.8-54.6 15.7-53.6.4.4 2.5 6.5 4.7 13.7 5 15.9 20.2 66.4 20.7 68.5.2.8 3.6 12.3 7.5 25.5 4 13.2 7.6 25.3 8 27 .5 1.6 2.2 7.4 4 12.8 2.7 8.7 3.5 10 6.9 12.2 10.3 6.9 29.2 10.1 46.9 8.1 10.4-1.1 13.2-2.5 14.8-7.1 2.5-7.7 14.4-52.1 16.9-63.5.2-.8 1.5-6.5 3-12.5 1.4-6.1 3.5-14.6 4.5-19 2.9-12.2 15.1-64.7 15.6-67.3.3-1.3 2.1-8.7 4-16.5 1.9-7.8 3.7-15 3.9-16 .2-1 .6-2.6.9-3.5.3-.9.8-2.8 1-4.2.3-1.4 1.2-5.2 2.1-8.5.8-3.3 1.7-6.9 1.9-8 .2-1.1 1.8-7.6 3.4-14.5 3.2-13 5.8-24.1 6.6-28.1.3-1.3.7-3.5 1-4.9.3-1.4.8-3.6 1.1-5 .3-1.4.7-3.6 1-5 .3-1.4.7-3.6 1-5 1.1-5 4.4-23.3 5-27.5.2-1.1.6-3.4.8-5 .3-1.7.8-4.8 1.1-7 .3-2.2.8-5.6 1-7.5.6-4.5.1-5.3-5.3-7.4-8.2-3.2-30.1-2.3-41.5 1.7-3.7 1.3-4.1 1.8-5.8 7.8-3.1 10.7-7 25.3-7.4 27.8-.3 1.4-.7 2.8-.9 3.1-.2.4-.7 2-1 3.7-.2 1.7-1.6 7.7-2.9 13.5-2.7 11.1-10.2 44.7-11 48.8-.3 1.9-4.9 24.4-7.1 35-2.5 11.8-7.8 36.4-8.5 39.5-1.4 5.6-4.1 17.5-4.6 20.5-.3 1.4-1.9 7.7-3.5 14-1.7 6.3-3.2 12.4-3.5 13.5-1.6 7.8-5.3 18.7-5.8 17.5-.5-1.2-11.5-45-13.1-52-1.5-6.7-22.1-87.9-23.5-93-1.1-3.6-2.1-7.6-2.4-9-.4-2.1-2.8-11.2-9.2-35-1-3.8-3.3-5.9-9.4-8.8-8.1-3.8-18.4-5.9-28.6-5.7-10.2.2-21 2.8-22.5 5.6-3.1 5.9-15.5 56.6-23.3 95.4-4 19.9-5.5 26.9-10.3 48.5-5.7 26.2-5.5 25.3-6.6 28.5-.3 1.1-.8 3.1-1.1 4.5-1.2 6-5.9 22-6.4 21.5-.4-.4-26.5-103.2-29.6-116.5-.2-.9-4-16.2-8.5-34-4.4-17.9-8.3-34.1-8.6-36-.3-1.9-1.2-6.7-2-10.5-.8-3.9-1.7-8.6-2-10.5-1.2-7.2-4.6-19.3-6.9-24.3-2.9-6.5-9.5-12.6-16.6-15-4.5-1.6-22-3.3-23.2-2.2zM1976.8 1982.5c-.2.1-3 .5-6.3.8-11.8 1.2-27.9 4.9-29 6.8-.4.5-1 3.5-1.5 6.6-.6 3.2-1.2 6.9-1.5 8.3-1.7 8.2-3.7 18.9-4 21.5-.3 1.6-.7 4.1-1 5.5-.3 1.4-.7 3.8-1 5.5-.3 1.6-.8 4.1-1 5.5-1.1 5.4-2 10.1-3.9 21.2-.2 1.3-1.1 6.1-2 10.8-.9 4.7-1.8 10.3-2.2 12.5-.3 2.2-1.2 7.1-1.9 11-.8 3.8-1.6 8.8-2 11-.3 2.2-1.2 7.6-2.1 12-.8 4.4-1.7 9.6-2 11.5-.4 3.6-3 18.5-3.9 23-.3 1.4-.8 4.5-1.1 7-.3 2.5-.7 5.2-.9 6-.3.8-.7 3.3-1 5.5-.6 3.8-.9 5.9-2 11.5-.3 1.4-.7 3.8-.9 5.5-.3 1.6-.7 4.5-1 6.2-.3 1.8-.8 4.8-1.1 6.5-.3 1.8-1 5.8-1.5 8.8-.5 3-1.2 7.5-1.5 10-.3 2.5-.8 5.2-1 6-.2.8-.6 3.3-1 5.5-.6 4-.8 5.2-2.5 15.5-.5 3-1.1 7.3-1.5 9.5-.3 2.2-.7 5.1-1 6.5-.3 1.4-.7 4.1-.9 6-.7 5.5-6.6 43.2-7.1 45.7-.4 1.8.3 2.8 3.4 4.7 8.5 5.4 24 7.1 45.6 5.1 5-.5 9.3-.8 9.6-.7 1.3.3 6.1-18.9 7.3-29.3.4-2.8.8-6.1 1.1-7.5.5-2.9 1.2-7.6 2-14.5.4-2.8.8-6.1 1-7.5.2-1.4.9-6.1 1.5-10.5 2-14.8 3.6-23.1 6.1-31l1.9-6 26.8.2c14.7.1 28.3.2 30.3.2l3.5.1 1.2 10.2c.7 5.7 1.5 11.6 1.7 13.3.3 1.6.7 4.3 1 6 .3 1.6.7 5 1 7.5.3 2.5.8 5.6 1 7 .2 1.4.7 4.1 1 6 .8 5 2.4 14.1 3 17 .3 1.4.7 3.8 1 5.5.6 3.5 3.2 15.3 4.7 21.1.9 3.7 1.6 4.5 6.6 6.9 9.1 4.5 19.9 6.5 32.7 6.1 6.1-.2 12.5-.9 14.3-1.6l3.4-1.3-.7-6.4c-.3-3.5-.8-7.2-1-8.1-.2-1.6-1.6-10.7-2-14.2-1-7.6-1.8-13.8-2.1-15.5-.2-1.1-.6-4-1-6.5-.3-2.5-.9-7-1.4-10-.5-3-1.1-7.2-1.4-9.3-.4-2-.8-5.4-1.2-7.5-.3-2-.9-6.2-1.4-9.2-.5-3-1.2-7.1-1.5-9-.3-1.9-.8-4.6-1-6-.3-1.4-.7-4.1-.9-6-.3-1.9-1.2-7.6-2.1-12.5-1.9-10.6-2-11.6-3-17.5-.4-2.5-.9-5.4-1.1-6.5-.3-1.6-2.8-15.1-5.1-27.5-.4-2.5-6-30.7-6.8-34.5-.2-1.1-.8-4.3-1.4-7-.5-2.8-1.9-9.1-3-14-1.1-5-2.3-10.6-2.6-12.5-.3-1.9-1-5.1-1.5-7-.8-2.9-8.3-34.6-9.5-40-.2-.8-.8-3.5-1.4-6-.7-2.5-1.4-5.6-1.7-7-.2-1.4-.8-3.4-1.1-4.5-.4-1.1-.8-2.5-.9-3-.2-1.1-6.2-24.1-7-26.7-.8-2.7-10.3-5.9-23.4-7.8-5.1-.7-33.5-1.2-34.2-.5zm15 62.2c-.1.5.5 3.9 1.5 7.8.9 3.8 1.9 8.3 2.2 10 6.1 33 7.4 40.7 8 44.5.4 2.5 1.1 6.7 1.6 9.5.6 2.7 1.2 6.1 1.4 7.5.3 2 2.9 15 6 30.5.3 1.1 1.1 4.1 1.9 6.7l1.4 4.6-4.1 1c-3 .8-35.3 1-39.8.3-.3-.1 0-3.8.7-8.4.8-4.5 1.6-10.1 1.9-12.3.3-2.3.8-5.3 1.1-6.5.2-1.3.6-4 .9-5.9.3-1.9.7-4.6 1-6 .3-1.4.8-4.3 1.1-6.5.2-2.2.7-5.1.9-6.5.2-1.4.7-4.1 1-6 .3-1.9 1-6 1.5-9s1.1-6.9 1.4-8.5c.2-1.7 1.1-7.3 1.9-12.5.9-5.2 1.9-11.5 2.2-14 .4-2.5.8-5.2 1-6 .2-.8.7-4 1.1-7 .7-5 .9-5.9 1.3-7.5 0-.3.3-.5.6-.5s.4.3.3.7zM2250.5 1983c-21.1 3.2-30.3 5.8-44 12.8-22.7 11.6-35.3 33.3-43.4 74.9-2.9 14.7-3.3 17.3-4.6 30.3-.3 3.6-.8 7.5-1 8.7-2.4 14.6-2.4 77.8 0 94.3.2 1.4.7 5.4 1 9 .4 3.6.9 7.2 1 8.2.2.9.7 3.8 1.1 6.5.3 2.6.8 5.7 1 6.8.3 1.1.7 3.6 1 5.5.3 1.9 1.6 7.8 3 13s2.7 10.2 2.9 11c.9 4.2 6.9 18.2 10.2 23.9 4.9 8.4 16.2 19.5 24.9 24.7 6.4 3.8 20.9 9.6 27.1 10.9 14.6 3.1 23.4 3.9 46.3 3.9 21.8.1 42.8-.7 48.5-1.8 1.1-.2 5.8-.7 10.5-1.1 4.7-.3 9.2-.8 10-1 .8-.2 5.3-.7 10-1 10.5-.9 10.4-.8 11.1-1.8 1.1-1.5.1-52-1.6-74.2-.2-3.3-.7-9.8-1-14.4-.4-4.6-.8-9.1-1-10-.1-.9-.6-5-1-9.1s-.8-8.2-1-9c-.1-.8-.6-4-1-7-.3-3-.8-6.6-1-8-.2-1.4-.6-4.3-1-6.5-.3-2.3-.7-5-.9-6-.2-1.1-.7-3.9-1.1-6.3-.8-4.7-2-5.7-10-7.8-6.5-1.8-29.4-1.3-34.9.7-6.5 2.3-7.1 7.2-7.1 63.8v44.5l-3 .8c-16.2 4.3-35.8 3.2-48.1-2.9-15.7-7.7-25.6-27.5-25.4-50.8.1-3.9.3-27.5.5-52.5.4-48.4 1.2-84.2 2.1-90 3.6-22.8 9.1-32 22.3-37.2 8.7-3.3 24.2-3 44.6 1 16.6 3.2 22.9 4.1 30.4 4.4 5.2.2 6.3-1 13.1-12.9 9.3-16.2 10.2-27.6 2.6-34-7.3-6.2-24.4-11.5-44.8-14-7.2-.9-43-1.1-48.3-.3zM2750 1982.3c-.3.3-2.3.8-4.4 1.1-9.5 1.5-18.5 8.3-18.7 14-2.4 77.1-2.6 225.4-.4 301 .5 19.8.6 20.1 7.5 23.6 10.4 5.2 25 7.2 39.8 5.6 5.4-.7 12-2.4 12.6-3.4 1.3-2.2 1.9-32.4 1.9-102.7-.1-76.7.1-86.5 1.7-86.5.4 0 1.7 2.1 2.8 4.7 1.1 2.7 4.7 10.4 8 17.3s6.9 14.7 8.1 17.3c1.2 2.7 4.5 9.6 7.3 15.5 2.7 5.9 6.3 13.4 7.8 16.7 1.5 3.3 5.1 10.9 8 17 2.9 6 6.9 14.6 9 19 2.1 4.4 6.2 13.2 9.2 19.5 3 6.3 6.3 13.3 7.3 15.5 13.3 28.9 16.7 34.8 24 42 8.7 8.5 19.8 11.2 33.6 8.1 4.1-.9 7.9-2 8.6-2.4 1.4-.9 2.1-11.7 2.8-43.2.6-22.1.6-105.2 0-123.7-.5-18.2-1.5-42.2-1.9-46.8-.8-7.9-1.6-26.4-2.1-48-.9-31.3-2.2-52.3-4.1-62-.2-1.1-.9-4.8-1.5-8.2-.6-3.4-1.7-6.7-2.4-7.3-3.9-3.3-23.2-4.4-33.8-2-5.1 1.1-13.4 4.7-14.3 6.1-1.3 2.1-1.4 7.2-1.3 38.4.3 100.5.3 121.2-.3 133.3-.3 7.4-.8 13.5-1 13.7-.2.3-3.9-8-8.3-18.3-4.3-10.3-8.6-20.5-9.6-22.7-.9-2.2-5.6-13.5-10.4-25-4.7-11.6-9.7-23.4-11-26.3-1.4-2.9-2.5-5.5-2.5-5.8 0-.3-1.4-3.8-3.1-7.7-1.7-4-3.7-8.6-4.4-10.2-.7-1.7-2.2-5-3.2-7.5-1.1-2.5-6.4-14.9-11.8-27.5-15.9-37.3-19.5-41.3-38.7-42.2-5.7-.3-10.5-.3-10.8 0zM380.8 1983.5c-.2.2-3.7.7-7.8 1-4.1.3-9.1.7-11 1-1.9.2-6.3.7-9.8 1-3.5.4-7.1.8-8 1-.9.1-5.3.6-9.7 1-4.4.4-8.1.8-8.2.9-.2.1-.4 59.4-.5 131.7-.1 110 .2 154.3 1.5 192 .2 6 2.2 8.2 10.6 11.3 14.4 5.5 29.7 5.5 39.1 0 2.1-1.3 3-2.8 3.4-5.3 1.5-9.5 1.9-25.6 1.7-72.4-.1-40.4.1-50.7 1.1-50.7 40.4-1.6 55.8-3.4 72.3-8.6 13.6-4.2 27.8-13.5 35.8-23.3 19.6-24.1 26.6-76.6 16-119.6-4.6-19-12.9-33.6-24.3-42.6-10.2-8.1-25.9-14.4-43.5-17.5-4.2-.7-58-1.5-58.7-.9zm42.2 52.8c4.3.2 8.4.8 9.6 1.6 3 2 6.2 7 9.3 14.8 9.9 24.2 10 55.7.4 70.1-6.6 9.6-15.2 12.3-38.3 11.7-8.5-.2-16.4-.6-17.5-.8-1.1-.3-2.5-.6-3.2-.6-.8-.1-1.1-11.9-1-46.1.2-51.2-.3-47.9 7.3-50.5 2.7-.9 7.2-1.2 14.9-.8 6.1.2 14.4.5 18.5.6zM1181.5 1988.8c-.2.3-26.9.6-59.2.6l-58.8.2-.2 2.9c-1.6 32.1-2.5 300.7-1 312.8.8 6.8 3.9 14.5 6.2 15.3 1.9.8 141.3.8 151.5.1 4.1-.3 9.2-.6 11.2-.6 2.5-.1 4.4-.8 5.8-2.4 7.3-7.7 10.6-29.4 6.5-41.8-1.3-3.9-2.2-5-5.3-6.2-5.8-2.3-26.6-3.2-71.9-3-31.3.1-41.3-.1-41.3-1-.1-1.8-.1-85.8-.1-88.8l.1-2.6 39.3.1c39.2.1 50.4-.4 55-2.5 7.3-3.3 10.3-21.8 6.6-39.8-1.1-5.1-4.5-10-7.3-10.2-.6 0-2-.2-3.1-.4-7.2-1.4-21.5-1.9-53.7-1.7-20.3.2-36.8-.1-36.9-.5 0-.5-.2-1.7-.4-2.8-2.1-10.5-4.1-62.2-2.8-69.8l.5-2.7 40.6.2c39.8.1 53.1-.3 60.2-2.2 6.7-1.8 12.8-10.8 14.7-21.8.7-4.1.6-17.6-.1-20.7-.2-1.1-.5-2.3-.5-2.7-.2-2-13.6-6.3-22.9-7.4-6.8-.8-32-1.2-32.7-.6zM1234.8 2462.5c-.2.1-5 .5-10.8.9-5.8.3-11.4.8-12.5 1-1.1.2-4.5.7-7.5 1.2-3 .4-5.7.8-6 .9-.3.1-3.8.7-7.7 1.4-7.6 1.3-8.3 1.8-8.8 5.4-.1 1.2-.8 4.9-1.3 8.2-.6 3.3-1.5 8.5-2.1 11.5-2 11.6-6.2 34.7-7.1 39.5-.6 2.7-1.9 9.9-3 16-1.1 6-2.4 13.2-3 16-1.5 8-2 10.8-2.5 14.5-.5 3.1-2.9 16-5.5 29.5-.5 2.7-1.2 6.3-1.5 8-1.4 7.9-2.8 16.2-3 18-.2 1.1-1 6-2 11-.9 4.9-1.8 10.1-2 11.5-.2 1.4-1 6.4-1.8 11-.9 4.7-1.8 10.1-2.1 12-.3 1.9-.8 5.1-1.1 7-.3 1.9-.7 4.8-1 6.5-.2 1.6-.6 3.9-.8 5-.3 1.1-.8 4.2-1.1 7-.4 2.7-1.1 7.5-1.6 10.5s-1.2 7.5-1.5 10c-.3 2.5-.8 5.8-1.1 7.5-.3 1.6-.7 4.3-.9 6-.2 1.6-.6 5-.9 7.5-.4 2.5-.9 6.3-1.1 8.5-.3 2.2-.8 5.1-1 6.5-.4 2.7-1.1 8-2 17.5-.4 3.3-.8 6.7-1 7.5-.2.8-.7 4.9-1 9l-.7 7.6 2.9 1.3c3.6 1.7 7.9 3.1 12.3 3.9 6.4 1.3 39.5.7 42.6-.7.3-.1 1.5-5.3 2-8.1.3-1.4.9-4.1 1.4-6 .5-1.9 1.2-5.1 1.5-7 .3-1.9.8-4.6 1-6 1-4.7 1.3-6.5 1.9-11 .3-2.5.8-5.4 1-6.6.2-1.2.7-4.5 1.1-7.5.4-3 .8-5.6 1-5.9.1-.3.6-3.6 1-7.3.3-3.7.8-7.6 1-8.6.2-1 .6-4.2 1-7.2.3-3 .8-6.1 1-6.9.2-.8.6-3.7 1-6.3.3-2.7 1.1-5.7 1.7-6.7 2.5-4 30.9-6.7 49.4-4.6 6.5.8 14.1 3.9 14.1 5.9 0 1.9 1.3 11 1.8 12.7.2.8.6 3.3.9 5.5 1 8 1.6 12 2.1 13.5.2.8.6 2.8.9 4.5.3 1.6 1.7 9.7 3.1 18 1.4 8.2 2.8 16.1 3 17.5 2.8 19 3.1 19.8 9.5 23 8.4 4.3 17.2 6.2 29.5 6.4 14.3.3 20.8-.7 20.1-3.2-.2-.9-.7-4.9-1-8.7-.4-3.9-.8-8.1-1-9.5-.3-1.4-.7-5.2-1-8.5-.4-3.3-.8-7.4-1-9-.2-1.7-.7-5.5-1-8.6-.4-3.1-.8-6.5-1-7.5-.2-1.1-.7-4.8-1.1-8.4-.3-3.6-.8-7.2-1-8-.2-.8-.7-4-1-7-.4-3-.8-5.7-1-6-.2-.3-.6-3.4-1-7-.3-3.5-.8-6.7-1-7-.2-.3-.6-2.8-1-5.6-.6-5.5-.7-6.2-2.9-19.4-1.6-9.2-2-11.8-3.1-17-.2-1.4-.7-4.1-1-6-.7-4.7-4.3-23.8-6.1-33-.9-4.1-1.8-8.6-2-10-.3-1.4-1.4-7-2.5-12.5-1.2-5.5-2.3-10.9-2.5-12-.2-1.1-.6-3.1-.9-4.5-.3-1.4-.7-3.4-.9-4.5-.2-1.1-1.6-7.4-3.1-14-3.2-14.4-3-13.3-4.9-22-1.3-6.1-7.5-32.4-9.3-39.5-.3-1.4-.7-3-.8-3.5-3-13.3-9.9-38.1-10.8-38.7-2.8-1.8-13.5-4.6-20.7-5.3-7.6-.8-17.8-1.4-18.2-1zm-1.4 68c.4 2.2 1.8 9.6 3.1 16.5 2.8 14 2.6 12.6 5.3 27 1.1 5.8 2.3 12.1 2.6 14 .3 1.9.8 4.6 1.1 6 .8 3.8 1.6 8.3 2 10.5.5 3.3 2.4 14.8 3 17.5.2 1.3.7 4 1 6 .3 2 .7 4.7 1 6 .3 1.3.7 4 1 6 .3 2 .7 4.5.9 5.7.4 2 .2 2-20.9 2-21-.1-21.3-.1-21-2.1.2-1.2 1.1-7.1 2-13.1 2.2-14.4 2.3-15.5 2.9-19 .9-5.4 4.7-28.9 5.2-32 .3-1.7.7-3.7.9-4.5.2-.8.7-4 1-7 .4-3 .8-5.7 1-6 .2-.3.6-2.7.9-5.4.4-2.7.9-5.2 1.1-5.5.1-.3.6-3.5 1-7.1.4-3.6.8-6.7 1-7 .2-.3.6-3 1-6 1.1-8.3 1.9-9.1 2.9-2.5zM954.7 2463.6c-.1.2-3.8.5-8.2.9-9.3.7-12.5 1.1-22 3.1-30.8 6.3-44 18-57.8 50.9-2 4.7-5.2 14.5-6.2 18.5-.1.3-.7 2.5-1.4 4.9-1.6 5.8-5.9 26.4-6.7 32.1-.3 2.5-.7 5.6-.9 7-.2 1.4-.7 5.6-1.1 9.5-.3 3.8-.8 7.8-1 8.8-.6 3.2-1.6 28.8-1.7 40.7 0 12.2 1.1 38.3 1.8 41.8.2 1.1.6 5.6 1 9.9.3 4.3.8 8.5 1 9.3.2.8.6 3.3 1 5.5 5.2 36.7 16.5 65.4 30.6 78 12.1 10.9 31.6 19.1 51.9 22 2.5.3 5.9.8 7.5 1.1 6.2.9 17.5 1.4 34 1.3 16.9 0 20-.2 35.1-1.3 15.2-1.2 19.9-1.6 23.9-2.1 2.2-.2 6.9-.7 10.5-1 3.6-.3 7.4-.8 8.5-1 1.1-.2 2.5-.4 3.2-.4.9-.1 1.1-7.7.8-32.9-.2-18-.6-36.5-.9-41.2-.9-14.4-1.6-24.3-2.1-28.5-.2-2.2-.7-6.9-1-10.5-.3-3.6-.8-8.1-1.1-10-.2-1.9-.6-5.3-.9-7.5-.4-3.9-.7-6.1-2.5-17.8-.5-3.3-1.4-6.5-2-7.2-1.7-2-12.6-5.3-20.5-6.3-8.4-.9-16.5.1-22 2.8-6.7 3.4-7.3 4.7-9.1 21.5-.4 3.3-.7 24.2-.6 46.4l.1 40.3-3.2-.5c-1.8-.3-4.5.1-6.2.9-7.8 3.4-25.9 4-35.7 1-13.9-4.2-23.9-16.4-27.7-33.9-1.6-7.4-1.7-14.2-1.5-71.2.2-56.7.8-86.6 1.9-94.9 1.6-12.8 7-24.5 13.6-29.8 8-6.4 22.8-8.5 39.4-5.4 4.4.8 11.8 2.2 16.5 3.1 11.6 2.2 14.3 2.5 23.1 3 9.2.4 11.6-.1 12.4-2.6.4-1.1 2.7-5.5 5.1-9.9 5.7-10.1 7.5-15.3 7.6-21.7.1-8-2.5-11.4-12.8-16.4-9.2-4.5-22-7.7-37.9-9.5-5.4-.6-35.3-1.3-35.8-.8zM1435 2464.1c-9.7.9-17.1 3.3-20.5 6.9-3.2 3.4-3 .1-4.1 64-1.2 71.6-.9 157.3 1 252.5.1 6.1.6 11.6 1 12.4 1.1 1.7 10.4 5.8 16.4 7.2 2.6.6 5.6 1.3 6.7 1.6 4.8 1.2 23.3.9 28.9-.4 3.3-.7 6.1-1.5 6.3-1.7 1.5-1.5 2.2-27.7 2.2-75.6-.1-88 0-104.6.7-116.9.3-6.9.7-13.2.7-13.8.1-2 .6-1.1 5.6 8.9 7 13.9 18.3 35.2 19.2 36.2.7.8 44.7 1.3 45.2.5.2-.2 1.3-2.4 2.5-4.9 1.2-2.5 3.8-7.4 5.8-11 7.7-13.9 11.9-21.7 14.6-27 1.5-3 2.8-4.8 2.9-4 0 .8.3 2.8.6 4.5.3 1.6.6 40.1.8 85.5.2 74.8.7 101.2 2 108.1.3 1.3 1.5 3.2 2.7 4.1 1.3 1 2.8 2.2 3.4 2.7 1.4 1.1 10.9 4.2 15.3 5 6.6 1.1 26.5.6 32.4-.8l5.7-1.4.1-4.6c0-2.5.3-12.3.7-21.6.9-24.7.8-162.8-.2-184-.4-9.9-.9-21.8-1.1-26.5-.2-4.7-.6-12.1-.9-16.5-.3-4.4-.8-12.5-1.1-18-.3-5.5-.8-12.3-1-15-1-12.6-1.7-21.1-2-22.5-.2-.8-.6-5.1-1-9.6-.3-4.4-.8-8.9-1-10-.2-1-.4-3.2-.4-4.7-.1-2.3-.9-3.1-4.4-4.7-5.9-2.6-12.8-4-21.8-4.4-9.4-.4-20.9 1-22.5 2.6-3.9 4.2-15.9 30.8-27.8 61.8-4.1 10.7-9.3 24-11.6 29.5-5 11.9-14.8 31.5-15.8 31.5-.4 0-2.1-3.9-3.8-8.8-1.8-4.8-7.7-19.1-13.2-31.7-5.9-13.7-12-29.8-15.1-40-6.7-21.7-10.2-30.1-14.9-35.2-5.8-6.5-10.7-8.5-24.2-9.9-3-.3-5.9-.6-6.5-.7-.5-.2-4.4 0-8.5.4zM2042.8 2464.5c-.2.1-3.7.5-7.9.8-20.2 1.6-41 8.9-53.2 18.6-12.8 10.3-23.6 31.5-27.2 53.3-1.3 7.8-1.4 25.3-.2 32.5 3.2 18.7 11.4 33.7 27.1 50.2 14.7 15.3 31.7 27.2 56.3 39.7 28.1 14.3 39.7 23.3 44.8 34.8 5.9 13.3 5.2 30.9-1.7 42.4-3.2 5.2-9.4 11.2-11.7 11.2-.6 0-1.1.4-1.1.8 0 .6-5.6 2.8-12.8 4.8-3.2.9-18.1.5-22.7-.7-6.7-1.7-11.6-4.5-26.5-15.1-16.8-12.1-22-14.6-29.5-13.9-11.1 1-28.5 19.1-28.5 29.6 0 10.8 19.3 30.5 40.3 41.1 35.5 18 93.1 19.9 124.2 4.1 16-8.1 30.7-31.2 37.9-59.5 3.4-13.4 4.6-24.6 4.2-38.7-1-28.4-10.7-49.3-29.6-63.4-1.9-1.4-3.7-2.8-4-3.1-.8-1-10.1-7-10.6-7-.3 0-1.8-.8-3.2-1.8-1.5-1.1-8.1-4.7-14.7-8.2-31.7-16.6-37.2-19.8-48-27.9-9-6.7-18.2-16.8-21.8-24.1-2.8-5.6-3.2-7.6-3.4-15.1-.5-20.9 10.4-35.2 28.7-37.5 12.3-1.5 20.6 0 33.5 6.1 13.7 6.6 18.8 8.1 29.8 9 3.6.3 4 0 7.2-4.8 4.2-6.4 6.9-13.7 9.4-24.9 1.8-8.5 1.8-8.6-.1-10.2-11-9.5-24.4-15.6-44.3-20.1-.5-.2-2.8-.6-5-.9-2.2-.4-5.3-.9-7-1.2-3.1-.6-28.2-1.3-28.7-.9zM1744.8 2469.6c-.3.2-20.1 1.2-28.9 1.3l-3.6.1-.2 70.7c-.4 136.6-.4 169.1.4 207.3.4 21.2.8 40.1 1 42.1.5 7 3.4 10 10.3 10.5 34.6 2.4 137.1 2.1 158.9-.5 2.4-.2 7.4-5.5 9.3-9.6 3.7-8.2 4.6-22.1 1.9-32.4-1.5-5.9-2.3-6.5-11.1-8.5-8.9-2.1-20.9-2.9-38.3-2.6-32.1.5-58.2.4-62.5-.2-2.5-.4-5.1-.7-5.7-.7-1-.1-1.3-9.9-1.3-45.6v-45.4l36.3.1c36.6.1 55.4-.6 57.2-2.3.5-.5 1.7-.9 2.6-.9 4.2 0 7.9-30.1 5-40.5-1.5-5.6-2.1-6.2-7.1-7.9-8.4-2.8-10.5-2.9-49.5-3.1-38-.1-44.4-.5-44.6-2.9 0-.6-.2-2-.4-3.1s-.7-5.8-1-10.5c-.3-4.7-.8-10.5-1-13-.3-2.5-.7-9.5-1-15.5-.3-6.1-.7-15.8-1-21.7l-.5-10.6h47.2c26 0 48.2-.3 49.3-.5 1.1-.3 3.9-.6 6.2-.6 4.8-.1 7.2-2.1 10.5-8.6 3.3-6.4 4.8-13.2 5.5-24.5l.5-10.5-4.3-3.1c-6.9-4.8-7.7-5-23.4-5.9-11.2-.7-116.2-1.5-116.7-.9z"/></svg>